<svg version="1.1" id="Layer_1" xmlns="http://www.w3.org/2000/svg" xmlns:xlink="http://www.w3.org/1999/xlink" viewBox="0 0 290.558 290.558" xml:space="preserve" fill="#000000"><g id="SVGRepo_bgCarrier" stroke-width="0"></g><g id="SVGRepo_tracerCarrier" stroke-linecap="round" stroke-linejoin="round"></g><g id="SVGRepo_iconCarrier"> <g> <g> <polygon style="fill:#e4b83f;" points="142.906,65.449 100.941,107.414 154.723,156.717 192.208,119.232 "></polygon> <path style="fill:#e4b83f;" d="M173.466,172.789l14.062,14.062l7.019-7.038l39.833,39.758l20.687-20.683l-39.861-39.786 l7.052-7.071l-28.109-28.114l4.545-4.545l-76.226-83.157l7.385-7.385l-6.626-6.626l-7.094,7.094L89.274,0L35.492,53.777 l29.299,26.858l-7.169,7.169l6.626,6.626l7.455-7.455l83.161,76.226l4.508-4.508l4.723,4.723v20.041l-69.47,101.82l7.741,5.281 l61.729-90.471v87.828h9.371v-87.828l61.729,90.471l7.741-5.281l-69.47-101.82L173.466,172.789L173.466,172.789z M241.806,198.888 l-7.427,7.431l-33.212-33.146l7.417-7.441L241.806,198.888z M187.518,173.59l-12.117-12.117l21.498-21.554l12.117,12.117 L187.518,173.59z M49.043,53.487l39.936-39.936l20.519,22.383L71.426,74.005L49.043,53.487z M154.583,150.232L78.337,80.341 l37.495-37.495l69.891,76.245L154.583,150.232z M187.523,130.543l2.75,2.75l-21.498,21.554l-2.779-2.779L187.523,130.543z"></path> <rect x="67.396" y="51.289" transform="matrix(0.7071 -0.7071 0.7071 0.7071 -16.9286 71.0799)" style="fill:#e4b83f;" width="19.881" height="9.371"></rect> </g> </g> </g></svg>